<svg width="17" height="16" viewBox="0 0 17 16" fill="none" xmlns="http://www.w3.org/2000/svg">
<path d="M13.1667 12.667V5.33366H3.83333V12.667H13.1667ZM11.1667 0.666992H12.5V2.00032H13.1667C13.5203 2.00032 13.8594 2.1408 14.1095 2.39085C14.3595 2.6409 14.5 2.98004 14.5 3.33366V12.667C14.5 13.407 13.9067 14.0003 13.1667 14.0003H3.83333C3.47971 14.0003 3.14057 13.8598 2.89052 13.6098C2.64048 13.3597 2.5 13.0206 2.5 12.667V3.33366C2.5 2.59366 3.09333 2.00032 3.83333 2.00032H4.5V0.666992H5.83333V2.00032H11.1667V0.666992ZM7.83333 6.33366H9.16667V8.33366H11.1667V9.66699H9.16667V11.667H7.83333V9.66699H5.83333V8.33366H7.83333V6.33366Z" fill="#3772FF"/>
</svg>
