<svg width="56" height="56" viewBox="0 0 56 56" fill="none" xmlns="http://www.w3.org/2000/svg">
<rect width="56" height="56" rx="28" fill="#2D2C3C"/>
<path d="M22.8076 16C23.0304 16 23.244 16.0885 23.4016 16.246C23.5591 16.4036 23.6476 16.6172 23.6476 16.84V18.4108H32.668V16.8508C32.668 16.628 32.7565 16.4144 32.914 16.2568C33.0716 16.0993 33.2852 16.0108 33.508 16.0108C33.7308 16.0108 33.9444 16.0993 34.102 16.2568C34.2595 16.4144 34.348 16.628 34.348 16.8508V18.4108H37.6C38.2363 18.4108 38.8466 18.6635 39.2966 19.1133C39.7467 19.5631 39.9997 20.1733 40 20.8096V37.6012C39.9997 38.2375 39.7467 38.8477 39.2966 39.2975C38.8466 39.7473 38.2363 40 37.6 40H18.4C17.7637 40 17.1534 39.7473 16.7034 39.2975C16.2533 38.8477 16.0003 38.2375 16 37.6012V20.8096C16.0003 20.1733 16.2533 19.5631 16.7034 19.1133C17.1534 18.6635 17.7637 18.4108 18.4 18.4108H21.9676V16.8388C21.9679 16.6162 22.0566 16.4029 22.2141 16.2456C22.3716 16.0883 22.585 16 22.8076 16ZM17.68 25.2904V37.6012C17.68 37.6958 17.6986 37.7894 17.7348 37.8767C17.771 37.9641 17.824 38.0435 17.8909 38.1103C17.9577 38.1772 18.0371 38.2302 18.1245 38.2664C18.2118 38.3026 18.3054 38.3212 18.4 38.3212H37.6C37.6946 38.3212 37.7882 38.3026 37.8755 38.2664C37.9629 38.2302 38.0423 38.1772 38.1091 38.1103C38.176 38.0435 38.229 37.9641 38.2652 37.8767C38.3014 37.7894 38.32 37.6958 38.32 37.6012V25.3072L17.68 25.2904ZM24.0004 33.5428V35.542H22V33.5428H24.0004ZM28.9996 33.5428V35.542H27.0004V33.5428H28.9996ZM34 33.5428V35.542H31.9996V33.5428H34ZM24.0004 28.7704V30.7696H22V28.7704H24.0004ZM28.9996 28.7704V30.7696H27.0004V28.7704H28.9996ZM34 28.7704V30.7696H31.9996V28.7704H34ZM21.9676 20.0896H18.4C18.3054 20.0896 18.2118 20.1082 18.1245 20.1444C18.0371 20.1806 17.9577 20.2336 17.8909 20.3005C17.824 20.3673 17.771 20.4467 17.7348 20.5341C17.6986 20.6214 17.68 20.715 17.68 20.8096V23.6116L38.32 23.6284V20.8096C38.32 20.715 38.3014 20.6214 38.2652 20.5341C38.229 20.4467 38.176 20.3673 38.1091 20.3005C38.0423 20.2336 37.9629 20.1806 37.8755 20.1444C37.7882 20.1082 37.6946 20.0896 37.6 20.0896H34.348V21.2044C34.348 21.4272 34.2595 21.6408 34.102 21.7984C33.9444 21.9559 33.7308 22.0444 33.508 22.0444C33.2852 22.0444 33.0716 21.9559 32.914 21.7984C32.7565 21.6408 32.668 21.4272 32.668 21.2044V20.0896H23.6476V21.1936C23.6476 21.4164 23.5591 21.63 23.4016 21.7876C23.244 21.9451 23.0304 22.0336 22.8076 22.0336C22.5848 22.0336 22.3712 21.9451 22.2136 21.7876C22.0561 21.63 21.9676 21.4164 21.9676 21.1936V20.0896Z" fill="#F0F0F0"/>
</svg>
