<svg width="18" height="18" viewBox="0 0 18 18" fill="none" xmlns="http://www.w3.org/2000/svg">
<path d="M5.11728 7.72293C5.08599 7.69165 5.06116 7.65451 5.04422 7.61363C5.02728 7.57275 5.01855 7.52893 5.01855 7.48468C5.01854 7.44043 5.02725 7.39661 5.04417 7.35573C5.0611 7.31484 5.08591 7.27769 5.1172 7.24639C5.14848 7.2151 5.18563 7.19027 5.22651 7.17333C5.26739 7.15639 5.3112 7.14767 5.35545 7.14766C5.3997 7.14765 5.44352 7.15636 5.48441 7.17328C5.52529 7.19021 5.56244 7.21503 5.59374 7.24631L8.5566 10.2084V1.58696C8.5566 1.49759 8.5921 1.41188 8.65529 1.34869C8.71848 1.2855 8.80419 1.25 8.89355 1.25C8.98292 1.25 9.06863 1.2855 9.13182 1.34869C9.19501 1.41188 9.23051 1.49759 9.23051 1.58696V10.2084L12.1934 7.24631C12.2566 7.18313 12.3423 7.14764 12.4317 7.14766C12.521 7.14767 12.6067 7.18319 12.6699 7.24639C12.7331 7.3096 12.7686 7.39531 12.7686 7.48468C12.7685 7.57405 12.733 7.65975 12.6698 7.72293L9.13178 11.2601C9.06859 11.3233 8.9829 11.3588 8.89355 11.3588C8.80421 11.3588 8.71851 11.3233 8.65533 11.2601L5.11728 7.72293ZM16.3066 10.6848C16.2172 10.6848 16.1315 10.7203 16.0683 10.7835C16.0051 10.8467 15.9696 10.9324 15.9696 11.0217V15.7391C15.9696 15.8285 15.934 15.9141 15.8709 15.9773C15.8077 16.0405 15.722 16.076 15.6327 16.0761H2.15442C2.06509 16.076 1.97943 16.0405 1.91626 15.9773C1.85309 15.9141 1.81756 15.8285 1.81747 15.7391V11.0217C1.81747 10.9324 1.78197 10.8467 1.71878 10.7835C1.65558 10.7203 1.56988 10.6848 1.48051 10.6848C1.39114 10.6848 1.30544 10.7203 1.24225 10.7835C1.17906 10.8467 1.14355 10.9324 1.14355 11.0217V15.7391C1.14384 16.0071 1.25044 16.2641 1.43995 16.4536C1.62946 16.6431 1.88641 16.7497 2.15442 16.75H15.6327C15.9007 16.7497 16.1576 16.6431 16.3472 16.4536C16.5367 16.2641 16.6433 16.0071 16.6436 15.7391V11.0217C16.6436 10.9324 16.6081 10.8467 16.5449 10.7835C16.4817 10.7203 16.396 10.6848 16.3066 10.6848Z" fill="#E91B1B" stroke="#E91B1B"/>
</svg>
