<svg width="33" height="32" viewBox="0 0 33 32" fill="none" xmlns="http://www.w3.org/2000/svg">
<path fill-rule="evenodd" clip-rule="evenodd" d="M25.3975 4.88912C24.5475 5.0404 23.4287 5.41064 21.7964 5.95474L16.4631 7.73253C15.5612 8.03316 14.9649 8.2335 14.5256 8.43785C14.1096 8.63134 13.9299 8.78708 13.8146 8.94694C13.6994 9.10681 13.6085 9.32666 13.5565 9.78246C13.5015 10.2638 13.5 10.8928 13.5 11.8435V14.6121L27.5 9.94534C27.4999 8.28989 27.4945 7.14652 27.3721 6.31234C27.2503 5.48137 27.0413 5.18217 26.8079 5.01384C26.5743 4.8455 26.2244 4.74196 25.3975 4.88912ZM29.4869 7.99944C29.4705 7.24677 29.4337 6.58668 29.3509 6.02214C29.196 4.96526 28.8512 4.02122 27.9773 3.39136C27.1033 2.76149 26.0988 2.73289 25.0471 2.92006C24.0355 3.1001 22.7771 3.51961 21.2412 4.03161L15.7779 5.8527C14.9428 6.13106 14.2369 6.36629 13.682 6.62446C13.0921 6.8989 12.5802 7.23902 12.1921 7.77753C11.804 8.31602 11.6432 8.90917 11.5694 9.5556C11.5317 9.88572 11.5145 10.2558 11.5066 10.6661H11.5V11.6783C11.5 11.7147 11.5 11.7512 11.5 11.788V21.3323C10.6643 20.7047 9.6256 20.3327 8.5 20.3327C5.73857 20.3327 3.5 22.5714 3.5 25.3327C3.5 28.0942 5.73857 30.3327 8.5 30.3327C11.2614 30.3327 13.5 28.0942 13.5 25.3327V16.7202L27.5 12.0535V18.6657C26.6644 18.0381 25.6256 17.6661 24.5 17.6661C21.7385 17.6661 19.5 19.9047 19.5 22.6661C19.5 25.4275 21.7385 27.6661 24.5 27.6661C27.2615 27.6661 29.5 25.4275 29.5 22.6661V9.98421C29.5 9.93662 29.5 9.8893 29.5 9.84222V7.99944H29.4869ZM27.5 22.6661C27.5 21.0093 26.1568 19.6661 24.5 19.6661C22.8432 19.6661 21.5 21.0093 21.5 22.6661C21.5 24.323 22.8432 25.6661 24.5 25.6661C26.1568 25.6661 27.5 24.323 27.5 22.6661ZM11.5 25.3327C11.5 23.6759 10.1569 22.3327 8.5 22.3327C6.84315 22.3327 5.5 23.6759 5.5 25.3327C5.5 26.9897 6.84315 28.3327 8.5 28.3327C10.1569 28.3327 11.5 26.9897 11.5 25.3327Z" fill="#777E90"/>
</svg>
