<svg width="49" height="48" viewBox="0 0 49 48" fill="none" xmlns="http://www.w3.org/2000/svg">
<path d="M22.5 31C22.5 30.4477 22.0523 30 21.5 30H8.5C7.39543 30 6.5 30.8954 6.5 32V38C6.5 41.3137 9.18629 44 12.5 44H21.5C22.0523 44 22.5 43.5523 22.5 43V31Z" fill="#58C27D"/>
<path d="M26.5 43C26.5 43.5523 26.9477 44 27.5 44H36.5C39.8137 44 42.5 41.3137 42.5 38V32C42.5 30.8954 41.6046 30 40.5 30H27.5C26.9477 30 26.5 30.4477 26.5 31V43Z" fill="#58C27D"/>
<path d="M22.5 17C22.5 16.4477 22.0523 16 21.5 16H8.5C6.29086 16 4.5 17.7909 4.5 20V22C4.5 24.2091 6.29086 26 8.5 26H21.5C22.0523 26 22.5 25.5523 22.5 25V17Z" fill="#58C27D"/>
<path d="M26.5 25C26.5 25.5523 26.9477 26 27.5 26H40.5C42.7091 26 44.5 24.2091 44.5 22V20C44.5 17.7909 42.7091 16 40.5 16H27.5C26.9477 16 26.5 16.4477 26.5 17V25Z" fill="#58C27D"/>
<path d="M14.5 8C14.5 5.79086 16.2909 4 18.5 4C20.7091 4 22.5 5.79086 22.5 8V11C22.5 11.5523 22.0523 12 21.5 12H18.5C16.2909 12 14.5 10.2091 14.5 8Z" fill="#58C27D"/>
<path d="M34.5 8C34.5 5.79086 32.7091 4 30.5 4C28.2909 4 26.5 5.79086 26.5 8V11C26.5 11.5523 26.9477 12 27.5 12H30.5C32.7091 12 34.5 10.2091 34.5 8Z" fill="#58C27D"/>
</svg>
