<svg width="19" height="18" viewBox="0 0 19 18" fill="none" xmlns="http://www.w3.org/2000/svg">
<path d="M8.90911 0.463526C9.05879 0.0028708 9.7105 0.00287008 9.86017 0.463525L11.6298 5.90983C11.6967 6.11584 11.8887 6.25532 12.1053 6.25532H17.8319C18.3163 6.25532 18.5176 6.87513 18.1258 7.15983L13.4929 10.5258C13.3176 10.6532 13.2443 10.8788 13.3112 11.0848L15.0809 16.5312C15.2305 16.9918 14.7033 17.3749 14.3114 17.0902L9.67854 13.7242C9.50329 13.5968 9.266 13.5968 9.09075 13.7242L4.45785 17.0902C4.06599 17.3749 3.53875 16.9918 3.68843 16.5312L5.45804 11.0848C5.52498 10.8788 5.45165 10.6532 5.2764 10.5258L0.6435 7.15983C0.251643 6.87513 0.45303 6.25532 0.937392 6.25532H6.66398C6.88059 6.25532 7.07257 6.11584 7.1395 5.90983L8.90911 0.463526Z" fill="#3772FF"/>
</svg>
