<svg width="56" height="56" viewBox="0 0 56 56" fill="none" xmlns="http://www.w3.org/2000/svg">
<rect width="56" height="56" rx="28" fill="#2D2C3C"/>
<mask id="path-2-outside-1_140_162" maskUnits="userSpaceOnUse" x="17.9333" y="15.6592" width="20" height="25" fill="black">
<rect fill="white" x="17.9333" y="15.6592" width="20" height="25"/>
<path fill-rule="evenodd" clip-rule="evenodd" d="M29.6003 36.5143C33.3054 32.3085 36.0667 29.174 36.0667 25.4149C36.0667 21.1315 32.4551 17.6592 28 17.6592C23.5449 17.6592 19.9333 21.1315 19.9333 25.4149C19.9333 29.174 22.6946 32.3085 26.3997 36.5143C26.9164 37.1008 27.4515 37.7082 28 38.3411C28.5485 37.7083 29.0836 37.1008 29.6003 36.5143ZM27.9986 29.7198C30.4737 29.7198 32.4801 27.7907 32.4801 25.411C32.4801 23.0314 30.4737 21.1023 27.9986 21.1023C25.5236 21.1023 23.5172 23.0314 23.5172 25.411C23.5172 27.7907 25.5236 29.7198 27.9986 29.7198Z"/>
</mask>
<path d="M29.6003 36.5143L30.7259 37.5058L29.6003 36.5143ZM26.3997 36.5143L25.2741 37.5058H25.2741L26.3997 36.5143ZM28 38.3411L26.8665 39.3235L28 40.6313L29.1335 39.3235L28 38.3411ZM34.5667 25.4149C34.5667 26.9009 34.0283 28.3397 32.9643 29.9811C31.8835 31.6483 30.3498 33.3943 28.4748 35.5227L30.7259 37.5058C32.5559 35.4284 34.2555 33.5043 35.4816 31.613C36.7244 29.6959 37.5667 27.688 37.5667 25.4149H34.5667ZM28 19.1592C31.6828 19.1592 34.5667 22.015 34.5667 25.4149H37.5667C37.5667 20.2481 33.2274 16.1592 28 16.1592V19.1592ZM21.4333 25.4149C21.4333 22.015 24.3172 19.1592 28 19.1592V16.1592C22.7726 16.1592 18.4333 20.2481 18.4333 25.4149H21.4333ZM27.5252 35.5227C25.6502 33.3943 24.1166 31.6483 23.0358 29.9811C21.9717 28.3397 21.4333 26.9009 21.4333 25.4149H18.4333C18.4333 27.688 19.2756 29.6959 20.5185 31.613C21.7446 33.5043 23.4441 35.4284 25.2741 37.5058L27.5252 35.5227ZM29.1335 37.3586C28.5804 36.7205 28.0414 36.1087 27.5252 35.5227L25.2741 37.5058C25.7914 38.093 26.3226 38.696 26.8665 39.3235L29.1335 37.3586ZM28.4748 35.5227C27.9586 36.1087 27.4196 36.7205 26.8665 37.3586L29.1335 39.3235C29.6774 38.696 30.2086 38.093 30.7259 37.5058L28.4748 35.5227ZM30.9801 25.411C30.9801 26.9072 29.7014 28.2198 27.9986 28.2198V31.2198C31.246 31.2198 33.9801 28.6741 33.9801 25.411H30.9801ZM27.9986 22.6023C29.7014 22.6023 30.9801 23.9149 30.9801 25.411H33.9801C33.9801 22.1479 31.246 19.6023 27.9986 19.6023V22.6023ZM25.0172 25.411C25.0172 23.9149 26.2959 22.6023 27.9986 22.6023V19.6023C24.7513 19.6023 22.0172 22.1479 22.0172 25.411H25.0172ZM27.9986 28.2198C26.2959 28.2198 25.0172 26.9072 25.0172 25.411H22.0172C22.0172 28.6741 24.7513 31.2198 27.9986 31.2198V28.2198Z" fill="white" mask="url(#path-2-outside-1_140_162)"/>
</svg>
