<svg width="82" height="23" viewBox="0 0 82 23" fill="none" xmlns="http://www.w3.org/2000/svg">
<path d="M18.2911 2.58398C18.2994 2.64749 18.3042 2.71168 18.3042 2.77723C18.3042 3.69977 17.4533 4.44682 16.4032 4.44682C15.3531 4.44682 14.5028 3.69909 14.5028 2.77723C14.5028 2.71168 14.5076 2.64749 14.5159 2.58398H12.3688C12.1766 2.58398 12.0201 2.73831 12.0201 2.92883V5.64865L19.8932 14.2718C20.1509 14.5545 20.1288 14.9901 19.8429 15.2448L18.072 16.8236C18.2202 17.0606 18.3042 17.3337 18.3042 17.6239C18.3042 17.6929 18.2994 17.7605 18.2898 17.8267H20.4382C20.6304 17.8267 20.7869 17.6724 20.7869 17.4819V2.92883C20.7869 2.73831 20.6304 2.58398 20.4382 2.58398H18.2911Z" fill="white"/>
<path d="M14.7494 9.20856L14.7563 9.20241L14.4242 8.85279L9.71389 3.6938C9.58504 3.55245 9.36455 3.54153 9.22122 3.66854L7.62677 5.09025C7.6757 5.1319 7.72324 5.17629 7.76734 5.22477C8.3923 5.90968 8.26759 7.02751 7.48828 7.72266C7.09483 8.07365 6.60974 8.24915 6.14533 8.24915C5.68091 8.24915 5.25439 8.0798 4.94501 7.7411C4.90091 7.69262 4.86026 7.6414 4.82374 7.58882L3.22929 9.01053C3.08666 9.13823 3.07494 9.35606 3.20379 9.49741L7.70257 14.4249L7.69568 14.4311L8.02711 14.78L13.0695 20.3029C13.1984 20.4443 13.4189 20.4552 13.5622 20.3282L15.1573 18.9058C15.1057 18.8628 15.0561 18.8157 15.0092 18.7651C14.3842 18.0802 14.509 16.9624 15.2883 16.2673C15.6817 15.9163 16.1668 15.7408 16.6312 15.7408C17.0956 15.7408 17.5221 15.9101 17.8315 16.2488C17.8784 16.3 17.9197 16.3533 17.9583 16.4086L19.5535 14.9862C19.6961 14.8585 19.7078 14.6407 19.5789 14.4993L14.7487 9.20856H14.7494ZM4.33865 9.31099L4.83476 8.8685C5.22201 9.08906 5.66989 9.20583 6.14602 9.20583C6.87089 9.20583 7.57854 8.93132 8.13736 8.43283C8.69066 7.93981 9.03863 7.27949 9.11718 6.57478C9.17023 6.09951 9.09926 5.64063 8.91391 5.23092L9.41002 4.78842L13.3941 9.15188L8.40953 13.7694L4.33796 9.31031L4.33865 9.31099ZM17.9521 15.1262C17.5628 14.9022 17.1122 14.7834 16.6326 14.7834C15.9077 14.7834 15.2001 15.0579 14.6413 15.5564C14.0879 16.0494 13.74 16.7097 13.6614 17.4145C13.6077 17.8931 13.6807 18.3554 13.8688 18.7672L13.3748 19.2076L9.0593 14.4809L14.0438 9.86342L18.4468 14.6858L17.9528 15.1262H17.9521Z" fill="white"/>
<path d="M13.9294 11.4121L10.4642 14.5942L10.9914 15.1548L14.4566 11.9727L13.9294 11.4121Z" fill="white"/>
<path d="M11.5902 15.7915L12.1173 16.3521L15.5825 13.17L15.0554 12.6094L11.5902 15.7915Z" fill="white"/>
<path d="M28.6331 15.273C27.1461 15.273 25.9589 14.7588 25.2554 13.4566L26.6155 12.577C27.0076 13.3767 27.6994 13.8451 28.7254 13.8451C29.6825 13.8451 30.3736 13.4566 30.3736 12.9082C30.3736 11.4688 25.4511 12.3483 25.4511 9.34371C25.4511 7.80114 26.7423 6.77344 28.7137 6.77344C30.2006 6.77344 31.4575 7.36752 32.0569 8.58984L30.5927 9.34371C30.2585 8.61237 29.5323 8.20129 28.6214 8.20129C27.7104 8.20129 27.0999 8.57823 27.0999 9.12656C27.0999 10.6002 32.1493 9.81215 32.1493 12.702C32.1493 14.2214 30.7546 15.2723 28.6331 15.2723V15.273Z" fill="white"/>
<path d="M34.5692 12.5654C34.6615 13.3425 35.1107 13.8451 35.7798 13.8451C36.2987 13.8451 36.6101 13.5365 36.8175 13.1711L37.9475 14.0165C37.4631 14.8277 36.6907 15.273 35.6647 15.273C33.9704 15.273 32.8521 14.0732 32.8521 12.1653C32.8521 10.2574 33.8898 9.13818 35.5152 9.13818C37.2447 9.13818 38.2128 10.4978 38.0743 12.5654H34.5698H34.5692ZM36.3558 11.5261C36.3676 10.9437 35.9982 10.5667 35.5028 10.5667C35.0074 10.5667 34.6381 10.9553 34.6153 11.5261H36.3558Z" fill="white"/>
<path d="M42.2927 14.3933C42.0736 14.93 41.2785 15.2728 40.5178 15.2728C39.6068 15.2728 38.7772 14.7702 38.7772 13.7077C38.7772 12.0285 40.8519 11.6516 42.2817 11.446C42.2121 10.8178 41.7973 10.5665 41.233 10.5665C40.6687 10.5665 40.2993 10.7953 40.1029 11.1374L38.9729 10.3951C39.4573 9.58389 40.2063 9.13867 41.3363 9.13867C42.9384 9.13867 43.9299 10.0182 43.9299 11.4003V15.1587H42.6042L42.2927 14.3933ZM42.2927 12.4512C41.4976 12.6226 40.4599 12.8971 40.4599 13.6162C40.4599 13.9931 40.7362 14.1304 41.0476 14.1304C41.5548 14.1304 42.2349 13.7418 42.2927 13.1819V12.4505V12.4512Z" fill="white"/>
<path d="M47.7568 13.8451C47.9181 13.8451 48.1372 13.811 48.541 13.7195V15.159C48.1372 15.2389 47.7568 15.273 47.5033 15.273C46.1775 15.273 45.4051 14.4276 45.4051 13.0107V10.6801H44.6561V9.25224H45.4051L45.6242 7.52734H47.054V9.25224H48.368V10.6801H47.054V13.0223C47.054 13.5481 47.2497 13.8451 47.7575 13.8451H47.7568Z" fill="white"/>
<path d="M51.6761 9.05811C52.7827 9.05811 53.5779 9.61805 54.0161 10.4634L53.3939 10.8636C53.1169 10.2695 52.5526 9.84681 51.6995 9.84681C50.9044 9.84681 50.3394 10.2237 50.3394 10.8062C50.3394 12.2115 53.9589 11.3088 53.9589 13.4339C53.9589 14.5537 52.9447 15.2735 51.6534 15.2735C50.5006 15.2735 49.6593 14.7026 49.2789 13.8682L49.8784 13.4113C50.132 14.017 50.7432 14.4855 51.6534 14.4855C52.4837 14.4855 53.1059 14.0969 53.1059 13.5144C53.1059 12.1207 49.4863 13.0344 49.4863 10.8752C49.4863 9.80105 50.3972 9.05879 51.6768 9.05879L51.6761 9.05811Z" fill="white"/>
<path d="M57.9471 9.84632C56.8633 9.84632 56.0909 10.6002 56.0909 11.8799V15.1583H55.2151V9.18326H55.8952L56.0909 10.2799C56.5057 9.54859 57.3243 9.05762 58.2579 9.05762C59.503 9.05762 60.3561 9.93714 60.3561 11.2626V15.1583H59.4686V11.3998C59.4686 10.4745 58.927 9.84632 57.9471 9.84632Z" fill="white"/>
<path d="M65.4281 14.2328C65.0133 14.8385 64.0562 15.2721 63.2376 15.2721C62.419 15.2721 61.5088 14.7921 61.5088 13.6845C61.5088 11.7882 64.0796 11.6393 65.4164 11.274C65.3936 10.2688 64.7942 9.84612 63.9294 9.84612C63.0647 9.84612 62.5458 10.2688 62.235 10.8745L61.6011 10.4634C62.0504 9.61805 62.7656 9.05811 63.9411 9.05811C65.2896 9.05811 66.3045 9.76623 66.3045 11.1142V15.1581H65.6245L65.4288 14.2328H65.4281ZM65.4281 11.9022C64.3904 12.1876 62.3963 12.3823 62.3963 13.6612C62.3963 14.3584 62.9723 14.5981 63.445 14.5981C64.1713 14.5981 65.2434 14.0614 65.4274 13.41V11.9022H65.4281Z" fill="white"/>
<path d="M68.402 9.18375L68.5977 10.2804C69.0242 9.51494 69.7387 9.05811 70.6262 9.05811C72.1014 9.05811 73.0702 10.3378 73.0702 12.1658C73.0702 13.9938 72.1021 15.2735 70.6262 15.2735C69.7387 15.2735 69.0242 14.8166 68.5977 14.0628V17.5474H67.7212V9.18512H68.4013L68.402 9.18375ZM70.3843 14.4848C71.4565 14.4848 72.171 13.5595 72.171 12.1658C72.171 10.7721 71.4565 9.84681 70.3843 9.84681C69.3122 9.84681 68.5977 10.7721 68.5977 12.1658C68.5977 13.5595 69.3122 14.4848 70.3843 14.4848Z" fill="white"/>
<path d="M76.3907 9.05811C77.4973 9.05811 78.2925 9.61805 78.7307 10.4634L78.1085 10.8636C77.8315 10.2695 77.2672 9.84681 76.4141 9.84681C75.619 9.84681 75.054 10.2237 75.054 10.8062C75.054 12.2115 78.6735 11.3088 78.6735 13.4339C78.6735 14.5537 77.6593 15.2735 76.368 15.2735C75.2152 15.2735 74.3739 14.7026 73.9935 13.8682L74.593 13.4113C74.8466 14.017 75.4578 14.4855 76.368 14.4855C77.1983 14.4855 77.8205 14.0969 77.8205 13.5144C77.8205 12.1207 74.2009 13.0344 74.2009 10.8752C74.2009 9.80105 75.1119 9.05879 76.3914 9.05879L76.3907 9.05811Z" fill="white"/>
</svg>
