<svg width="171" height="49" viewBox="0 0 171 49" fill="none" xmlns="http://www.w3.org/2000/svg">
<path d="M37.5591 5.50488C37.5765 5.64018 37.5867 5.77693 37.5867 5.91659C37.5867 7.882 35.7902 9.47353 33.5733 9.47353C31.3565 9.47353 29.5614 7.88054 29.5614 5.91659C29.5614 5.77693 29.5716 5.64018 29.5891 5.50488H25.0564C24.6505 5.50488 24.3203 5.83366 24.3203 6.23955V12.0339L40.9412 30.405C41.4852 31.0072 41.4386 31.9354 40.835 32.478L37.0965 35.8415C37.4093 36.3463 37.5867 36.9282 37.5867 37.5465C37.5867 37.6934 37.5765 37.8374 37.5562 37.9785H42.0918C42.4976 37.9785 42.8278 37.6498 42.8278 37.2439V6.23955C42.8278 5.83366 42.4976 5.50488 42.0918 5.50488H37.5591Z" fill="#3B71FE"/>
<path d="M30.0822 19.6176L30.0967 19.6045L29.3956 18.8596L19.4516 7.86875C19.1796 7.56761 18.7141 7.54433 18.4115 7.81492L15.0455 10.8438C15.1487 10.9325 15.2491 11.0271 15.3422 11.1304C16.6616 12.5895 16.3983 14.971 14.7531 16.452C13.9225 17.1997 12.8984 17.5736 11.918 17.5736C10.9375 17.5736 10.0371 17.2128 9.38397 16.4913C9.29087 16.388 9.20504 16.2789 9.12795 16.1668L5.76189 19.1957C5.46077 19.4677 5.43605 19.9318 5.70807 20.233L15.2055 30.7307L15.1909 30.7438L15.8906 31.4872L26.5358 43.2534C26.8078 43.5546 27.2733 43.5779 27.5758 43.3073L30.9433 40.2769C30.8342 40.1853 30.7295 40.0849 30.6306 39.9773C29.3112 38.5181 29.5745 36.1366 31.2197 34.6557C32.0503 33.9079 33.0744 33.534 34.0548 33.534C35.0353 33.534 35.9357 33.8948 36.5888 34.6164C36.6878 34.7255 36.775 34.839 36.8565 34.9568L40.224 31.9265C40.5251 31.6545 40.5499 31.1904 40.2778 30.8892L30.0807 19.6176H30.0822ZM8.10387 19.8358L9.15122 18.8931C9.96874 19.363 10.9143 19.6118 11.9194 19.6118C13.4497 19.6118 14.9436 19.0269 16.1234 17.9649C17.2914 16.9146 18.026 15.5078 18.1919 14.0065C18.3039 12.994 18.1541 12.0163 17.7628 11.1435L18.8101 10.2008L27.2209 19.4968L16.698 29.3341L8.10242 19.8343L8.10387 19.8358ZM36.8434 32.2247C36.0215 31.7476 35.0702 31.4944 34.0578 31.4944C32.5275 31.4944 31.0335 32.0792 29.8538 33.1412C28.6857 34.1916 27.9511 35.5984 27.7853 37.0997C27.6718 38.1195 27.826 39.1044 28.2231 39.9816L27.1802 40.92L18.0697 30.85L28.5926 21.0127L37.8878 31.2864L36.8449 32.2247H36.8434Z" fill="#6991CB"/>
<path d="M28.3511 24.312L21.0356 31.0913L22.1485 32.2857L29.4639 25.5064L28.3511 24.312Z" fill="#6991CB"/>
<path d="M23.4126 33.6416L24.5254 34.836L31.8408 28.0567L30.728 26.8623L23.4126 33.6416Z" fill="#6991CB"/>
<path d="M59.3919 32.5379C56.2528 32.5379 53.7464 31.4424 52.2612 28.6681L55.1327 26.7944C55.9604 28.4979 57.4209 29.4959 59.5869 29.4959C61.6074 29.4959 63.0664 28.6681 63.0664 27.4999C63.0664 24.4333 52.6744 26.307 52.6744 19.906C52.6744 16.6196 55.4004 14.4302 59.5621 14.4302C62.7013 14.4302 65.3545 15.6958 66.6201 18.2999L63.529 19.906C62.8235 18.3479 61.2902 17.4721 59.3672 17.4721C57.4442 17.4721 56.1553 18.2752 56.1553 19.4434C56.1553 22.5828 66.815 20.904 66.815 27.0606C66.815 30.2975 63.8708 32.5364 59.3919 32.5364V32.5379Z" fill="#353635"/>
<path d="M71.9238 26.7698C72.1187 28.4254 73.0672 29.4961 74.4796 29.4961C75.575 29.4961 76.2325 28.8385 76.6703 28.0602L79.056 29.8612C78.0333 31.5895 76.4027 32.538 74.2367 32.538C70.6597 32.538 68.2988 29.982 68.2988 25.9173C68.2988 21.8526 70.4895 19.4683 73.9211 19.4683C77.5722 19.4683 79.616 22.3647 79.3236 26.7698H71.9253H71.9238ZM75.6957 24.5556C75.7205 23.3147 74.9408 22.5117 73.8949 22.5117C72.849 22.5117 72.0693 23.3394 72.0213 24.5556H75.6957Z" fill="#353635"/>
<path d="M88.229 30.6643C87.7664 31.8077 86.0878 32.538 84.4818 32.538C82.5588 32.538 80.8074 31.4673 80.8074 29.2037C80.8074 25.6264 85.1873 24.8233 88.2057 24.3854C88.0588 23.047 87.1831 22.5117 85.9917 22.5117C84.8004 22.5117 84.0207 22.999 83.6061 23.7279L81.2205 22.1465C82.2431 20.4182 83.8243 19.4697 86.2099 19.4697C89.592 19.4697 91.6852 21.3435 91.6852 24.288V32.2951H88.8865L88.229 30.6643ZM88.229 26.5269C86.5503 26.892 84.3596 27.4769 84.3596 29.0087C84.3596 29.8118 84.9429 30.1042 85.6004 30.1042C86.6711 30.1042 88.1068 29.2764 88.229 28.0835V26.5254V26.5269Z" fill="#353635"/>
<path d="M99.7642 29.4958C100.105 29.4958 100.567 29.423 101.42 29.2281V32.2948C100.567 32.465 99.7642 32.5377 99.2289 32.5377C96.4301 32.5377 94.7995 30.7367 94.7995 27.718V22.7529H93.2183V19.7109H94.7995L95.262 16.0361H98.2804V19.7109H101.054V22.7529H98.2804V27.7428C98.2804 28.863 98.6936 29.4958 99.7656 29.4958H99.7642Z" fill="#353635"/>
<path d="M108.038 19.2979C110.374 19.2979 112.053 20.4908 112.978 22.2918L111.665 23.1443C111.08 21.8786 109.889 20.9781 108.088 20.9781C106.409 20.9781 105.216 21.7812 105.216 23.0221C105.216 26.016 112.858 24.0928 112.858 28.6201C112.858 31.0059 110.716 32.5393 107.99 32.5393C105.557 32.5393 103.781 31.3231 102.978 29.5453L104.243 28.5721C104.778 29.8625 106.069 30.8605 107.99 30.8605C109.743 30.8605 111.057 30.0327 111.057 28.7918C111.057 25.8226 103.415 27.7691 103.415 23.169C103.415 20.8807 105.338 19.2993 108.04 19.2993L108.038 19.2979Z" fill="#353635"/>
<path d="M121.277 20.9767C118.989 20.9767 117.358 22.5827 117.358 25.309V32.2934H115.51V19.5641H116.945L117.358 21.9004C118.234 20.3424 119.962 19.2964 121.933 19.2964C124.562 19.2964 126.363 21.1701 126.363 23.9939V32.2934H124.489V24.2863C124.489 22.3151 123.346 20.9767 121.277 20.9767Z" fill="#353635"/>
<path d="M137.07 30.3222C136.194 31.6126 134.174 32.5364 132.446 32.5364C130.718 32.5364 128.796 31.5137 128.796 29.154C128.796 25.1141 134.223 24.7969 137.045 24.0186C136.997 21.8772 135.732 20.9767 133.906 20.9767C132.081 20.9767 130.985 21.8772 130.329 23.1676L128.991 22.2918C129.94 20.4908 131.449 19.2979 133.931 19.2979C136.778 19.2979 138.921 20.8065 138.921 23.6782V32.2934H137.485L137.072 30.3222H137.07ZM137.07 25.357C134.879 25.9651 130.67 26.3797 130.67 29.1045C130.67 30.5899 131.886 31.1005 132.884 31.1005C134.417 31.1005 136.68 29.957 137.069 28.5692V25.357H137.07Z" fill="#353635"/>
<path d="M143.349 19.5655L143.762 21.9019C144.662 20.2711 146.171 19.2979 148.044 19.2979C151.159 19.2979 153.204 22.0241 153.204 25.9186C153.204 29.813 151.16 32.5393 148.044 32.5393C146.171 32.5393 144.662 31.566 143.762 29.96V37.3837H141.911V19.5684H143.347L143.349 19.5655ZM147.534 30.859C149.797 30.859 151.306 28.8878 151.306 25.9186C151.306 22.9494 149.797 20.9781 147.534 20.9781C145.27 20.9781 143.762 22.9494 143.762 25.9186C143.762 28.8878 145.27 30.859 147.534 30.859Z" fill="#353635"/>
<path d="M160.214 19.2979C162.55 19.2979 164.229 20.4908 165.154 22.2918L163.84 23.1443C163.255 21.8786 162.064 20.9781 160.263 20.9781C158.585 20.9781 157.392 21.7812 157.392 23.0221C157.392 26.016 165.033 24.0928 165.033 28.6201C165.033 31.0059 162.892 32.5393 160.166 32.5393C157.732 32.5393 155.956 31.3231 155.153 29.5453L156.419 28.5721C156.954 29.8625 158.244 30.8605 160.166 30.8605C161.919 30.8605 163.232 30.0327 163.232 28.7918C163.232 25.8226 155.591 27.7691 155.591 23.169C155.591 20.8807 157.514 19.2993 160.215 19.2993L160.214 19.2979Z" fill="#353635"/>
</svg>
