<svg width="22" height="22" viewBox="0 0 22 22" fill="none" xmlns="http://www.w3.org/2000/svg">
<path d="M20.9471 7.79445L19.0509 5.89824C18.8979 5.74731 18.6939 5.65918 18.4792 5.65123C18.2644 5.64327 18.0545 5.71607 17.8907 5.85527C17.638 6.07043 17.3136 6.18277 16.9819 6.17004C16.6502 6.1573 16.3353 6.02042 16.0998 5.78652C15.866 5.551 15.7292 5.23627 15.7165 4.90466C15.7037 4.57306 15.816 4.24876 16.031 3.99601C16.1702 3.83228 16.243 3.62233 16.2351 3.40758C16.2271 3.19282 16.139 2.98884 15.9881 2.83585L14.0901 0.937493C13.9298 0.777409 13.7124 0.6875 13.4858 0.6875C13.2592 0.6875 13.0418 0.777409 12.8814 0.937493L9.85858 3.95991C9.67195 4.14721 9.53121 4.37517 9.44737 4.62593C9.43105 4.67414 9.40383 4.71794 9.36784 4.75394C9.33185 4.78993 9.28805 4.81714 9.23983 4.83347C8.98897 4.9173 8.76098 5.05821 8.57382 5.24511L0.822259 12.9967C0.662174 13.1571 0.572266 13.3744 0.572266 13.601C0.572266 13.8276 0.662174 14.045 0.822259 14.2054L2.72062 16.1016C2.8736 16.2525 3.07759 16.3406 3.29234 16.3486C3.5071 16.3566 3.71704 16.2838 3.88077 16.1446C4.13295 15.9277 4.45778 15.8141 4.79017 15.8266C5.12256 15.839 5.43796 15.9767 5.67316 16.2119C5.90836 16.4471 6.04599 16.7625 6.05847 17.0949C6.07095 17.4272 5.95736 17.7521 5.74046 18.0043C5.60127 18.168 5.52847 18.3779 5.53642 18.5927C5.54438 18.8074 5.6325 19.0114 5.78343 19.1644L7.67964 21.0606C7.84003 21.2207 8.05738 21.3106 8.284 21.3106C8.51061 21.3106 8.72796 21.2207 8.88835 21.0606L16.6399 13.3091C16.8267 13.122 16.9676 12.8942 17.0515 12.6435C17.0678 12.5951 17.095 12.5512 17.1311 12.5151C17.1672 12.479 17.2111 12.4518 17.2595 12.4355C17.5101 12.3516 17.738 12.2109 17.9251 12.0243L20.9475 9.00144C21.107 8.84106 21.1965 8.62404 21.1964 8.39785C21.1964 8.17166 21.1067 7.95471 20.9471 7.79445ZM11.1343 6.52042C11.0705 6.58428 10.9947 6.63493 10.9113 6.66949C10.8278 6.70405 10.7384 6.72184 10.6481 6.72184C10.5578 6.72184 10.4684 6.70405 10.385 6.66949C10.3016 6.63493 10.2258 6.58428 10.1619 6.52042L9.66737 6.02585C9.54158 5.89627 9.47183 5.7224 9.47319 5.54181C9.47455 5.36122 9.54691 5.18841 9.67464 5.06074C9.80237 4.93307 9.9752 4.86078 10.1558 4.8595C10.3364 4.85822 10.5102 4.92805 10.6398 5.0539L11.1343 5.54804C11.1982 5.61188 11.2488 5.68768 11.2834 5.7711C11.318 5.85452 11.3357 5.94393 11.3357 6.03423C11.3357 6.12453 11.318 6.21394 11.2834 6.29736C11.2488 6.38078 11.1982 6.45658 11.1343 6.52042ZM13.025 8.41105C12.896 8.53988 12.7212 8.61225 12.539 8.61225C12.3567 8.61225 12.1819 8.53988 12.053 8.41105L11.5803 7.93839C11.5165 7.87454 11.4658 7.79875 11.4313 7.71532C11.3967 7.6319 11.379 7.54249 11.379 7.4522C11.379 7.36191 11.3967 7.2725 11.4313 7.18908C11.4658 7.10565 11.5165 7.02986 11.5803 6.96601C11.7093 6.83706 11.8842 6.76462 12.0665 6.76462C12.1568 6.76462 12.2462 6.78241 12.3297 6.81696C12.4131 6.85151 12.4889 6.90216 12.5527 6.96601L13.0254 7.43866C13.0895 7.5025 13.1403 7.57836 13.175 7.66188C13.2097 7.74541 13.2276 7.83496 13.2277 7.92541C13.2277 8.01586 13.2099 8.10543 13.1753 8.18899C13.1406 8.27254 13.0898 8.34844 13.0258 8.41234L13.025 8.41105ZM14.9156 10.3017C14.8517 10.3655 14.7759 10.4162 14.6925 10.4507C14.6091 10.4853 14.5197 10.5031 14.4294 10.5031C14.3391 10.5031 14.2497 10.4853 14.1663 10.4507C14.0828 10.4162 14.007 10.3655 13.9432 10.3017L13.4705 9.82902C13.3447 9.69944 13.275 9.52556 13.2764 9.34497C13.2777 9.16438 13.3501 8.99158 13.4778 8.8639C13.6055 8.73623 13.7784 8.66394 13.959 8.66266C14.1396 8.66138 14.3134 8.73121 14.4429 8.85706L14.9156 9.32972C14.9798 9.39345 15.0309 9.46924 15.0658 9.55275C15.1007 9.63625 15.1187 9.72582 15.1189 9.81632C15.1191 9.90683 15.1015 9.99648 15.0669 10.0801C15.0324 10.1638 14.9817 10.2398 14.9177 10.3038L14.9156 10.3017ZM16.8247 12.2155C16.7608 12.2794 16.685 12.33 16.6016 12.3646C16.5182 12.3991 16.4288 12.4169 16.3385 12.4169C16.2482 12.4169 16.1588 12.3991 16.0754 12.3646C15.9919 12.33 15.9161 12.2794 15.8523 12.2155L15.3607 11.7214C15.2955 11.6577 15.2436 11.5817 15.2081 11.4978C15.1725 11.414 15.154 11.3238 15.1535 11.2327C15.1531 11.1416 15.1708 11.0513 15.2055 10.9671C15.2403 10.8829 15.2915 10.8064 15.3561 10.7421C15.4206 10.6778 15.4974 10.6271 15.5818 10.5927C15.6661 10.5583 15.7565 10.5411 15.8476 10.542C15.9387 10.5428 16.0288 10.5618 16.1125 10.5978C16.1962 10.6338 16.2719 10.686 16.3353 10.7516L16.8273 11.2453C16.8911 11.3091 16.9417 11.385 16.9762 11.4684C17.0107 11.5518 17.0285 11.6412 17.0285 11.7315C17.0284 11.8218 17.0106 11.9112 16.976 11.9947C16.9414 12.0781 16.8907 12.1538 16.8268 12.2176L16.8247 12.2155Z" fill="#5A5A5A"/>
</svg>
