<svg width="19" height="18" viewBox="0 0 19 18" fill="none" xmlns="http://www.w3.org/2000/svg">
<path fill-rule="evenodd" clip-rule="evenodd" d="M11.6792 12.2399C10.6632 13.0297 9.38653 13.5 8 13.5C4.68629 13.5 2 10.8137 2 7.5C2 4.18629 4.68629 1.5 8 1.5C11.3137 1.5 14 4.18629 14 7.5C14 8.88653 13.5297 10.1632 12.7399 11.1792L16.7803 15.2197C17.0732 15.5126 17.0732 15.9874 16.7803 16.2803C16.4874 16.5732 16.0126 16.5732 15.7197 16.2803L11.6792 12.2399ZM12.5 7.5C12.5 9.98528 10.4853 12 8 12C5.51472 12 3.5 9.98528 3.5 7.5C3.5 5.01472 5.51472 3 8 3C10.4853 3 12.5 5.01472 12.5 7.5Z" fill="#FCFCFD"/>
</svg>
