<svg width="13" height="16" viewBox="0 0 13 16" fill="none" xmlns="http://www.w3.org/2000/svg">
<path fill-rule="evenodd" clip-rule="evenodd" d="M7.87877 2.66666C7.87877 1.1939 9.02521 0 10.4394 0C11.8536 0 13 1.1939 13 2.66666C13 4.13942 11.8536 5.33334 10.4394 5.33334C9.7253 5.33334 9.07997 5.02877 8.61602 4.53878L5.0713 7.0636C5.10403 7.234 5.12123 7.41 5.12123 7.58976C5.12123 7.94576 5.05394 8.28608 4.93204 8.59712L8.81882 11.2686C9.25998 10.8929 9.82441 10.6666 10.4394 10.6666C11.8536 10.6666 13 11.8606 13 13.3334C13 14.8061 11.8536 16 10.4394 16C9.02521 16 7.87877 14.8061 7.87877 13.3334C7.87877 12.9476 7.95768 12.5804 8.09953 12.2489L4.24417 9.59896C3.79444 10.0078 3.20534 10.2564 2.5606 10.2564C1.14642 10.2564 0 9.06248 0 7.58976C0 6.11698 1.14642 4.92308 2.5606 4.92308C3.37381 4.92308 4.0977 5.3178 4.5664 5.93214L8.00181 3.48514C7.92189 3.22687 7.87877 2.95168 7.87877 2.66666Z" fill="white"/>
</svg>
