<svg width="49" height="48" viewBox="0 0 49 48" fill="none" xmlns="http://www.w3.org/2000/svg">
<path fill-rule="evenodd" clip-rule="evenodd" d="M44.5 24C44.5 35.0457 35.5457 44 24.5 44C13.4543 44 4.5 35.0457 4.5 24C4.5 12.9543 13.4543 4 24.5 4C35.5457 4 44.5 12.9543 44.5 24ZM18.4444 27.5296C18.1846 26.456 17.1037 25.7963 16.0301 26.0561C14.9565 26.3159 14.2968 27.3968 14.5566 28.4704C15.0824 30.6434 16.3721 32.5582 18.1826 33.9161C19.991 35.2724 22.2189 36 24.5005 36C26.782 36 29.0099 35.2724 30.8183 33.9161C32.6289 32.5582 33.9185 30.6434 34.4444 28.4704C34.7041 27.3968 34.0444 26.3159 32.9708 26.0561C31.8972 25.7963 30.8163 26.456 30.5566 27.5296C30.2577 28.7647 29.5149 29.8937 28.4183 30.7161C27.3197 31.5401 25.9385 32 24.5005 32C23.0625 32 21.6813 31.5401 20.5826 30.7161C19.486 29.8937 18.7432 28.7647 18.4444 27.5296ZM20.8568 21.9679C19.77 22.1651 18.729 21.4439 18.5318 20.3571C18.523 20.3088 18.512 20.2652 18.4997 20.2262C18.4873 20.2652 18.4763 20.3088 18.4675 20.3571C18.2703 21.4439 17.2293 22.1651 16.1425 21.9679C15.0557 21.7706 14.3346 20.7297 14.5318 19.6429C14.6982 18.7257 15.1199 17.8331 15.806 17.1471C16.5011 16.452 17.446 16 18.4997 16C19.5533 16 20.4982 16.452 21.1933 17.1471C21.8794 17.8331 22.3011 18.7257 22.4675 19.6429C22.6647 20.7297 21.9436 21.7706 20.8568 21.9679ZM30.5318 20.3571C30.729 21.4439 31.77 22.1651 32.8568 21.9679C33.9436 21.7706 34.6647 20.7297 34.4675 19.6429C34.3011 18.7257 33.8794 17.8331 33.1933 17.1471C32.4982 16.452 31.5533 16 30.4997 16C29.446 16 28.5011 16.452 27.806 17.1471C27.1199 17.8331 26.6982 18.7257 26.5318 19.6429C26.3346 20.7297 27.0557 21.7706 28.1425 21.9679C29.2293 22.1651 30.2703 21.4439 30.4675 20.3571C30.4763 20.3088 30.4873 20.2652 30.4997 20.2262C30.512 20.2652 30.523 20.3088 30.5318 20.3571Z" fill="#FA8F54"/>
</svg>
