<svg width="12" height="12" viewBox="0 0 12 12" fill="none" xmlns="http://www.w3.org/2000/svg">
<path d="M11.8549 4.13533L10.7516 3.03198C10.6626 2.94416 10.5439 2.89288 10.419 2.88825C10.294 2.88362 10.1719 2.92598 10.0766 3.00698C9.92952 3.13217 9.74078 3.19754 9.54778 3.19013C9.35478 3.18272 9.1716 3.10308 9.03456 2.96697C8.89853 2.82993 8.81893 2.6468 8.81152 2.45385C8.80411 2.26089 8.86944 2.0722 8.99455 1.92513C9.07554 1.82986 9.1179 1.7077 9.11327 1.58274C9.10864 1.45778 9.05737 1.33908 8.96955 1.25007L7.86526 0.145464C7.77194 0.0523153 7.64547 0 7.51362 0C7.38177 0 7.2553 0.0523153 7.16198 0.145464L5.40316 1.90412C5.29457 2.01311 5.21268 2.14575 5.1639 2.29166C5.15441 2.31971 5.13857 2.3452 5.11763 2.36614C5.09669 2.38709 5.0712 2.40292 5.04315 2.41242C4.89719 2.4612 4.76453 2.54319 4.65563 2.65194L0.145456 7.16236C0.0523125 7.25568 0 7.38216 0 7.51401C0 7.64587 0.0523125 7.77234 0.145456 7.86567L1.25 8.96902C1.33901 9.05684 1.4577 9.10812 1.58265 9.11275C1.70761 9.11738 1.82976 9.07502 1.92503 8.99403C2.07175 8.86782 2.26075 8.80172 2.45415 8.80898C2.64755 8.81625 2.83106 8.89633 2.96791 9.03319C3.10476 9.17004 3.18484 9.35356 3.1921 9.54697C3.19936 9.74038 3.13327 9.92939 3.00707 10.0761C2.92608 10.1714 2.88372 10.2936 2.88835 10.4185C2.89298 10.5435 2.94426 10.6622 3.03207 10.7512L4.13536 11.8545C4.22869 11.9477 4.35515 12 4.487 12C4.61885 12 4.74532 11.9477 4.83864 11.8545L9.34882 7.34412C9.4575 7.23527 9.53948 7.1027 9.58833 6.95684C9.59778 6.92869 9.61363 6.90312 9.63462 6.88213C9.65562 6.86113 9.68119 6.84528 9.70933 6.83583C9.85516 6.78703 9.98771 6.70514 10.0966 6.59655L11.8552 4.83764C11.948 4.74433 12 4.61805 12 4.48643C12 4.35482 11.9478 4.22858 11.8549 4.13533ZM6.14544 3.39401C6.1083 3.43117 6.06419 3.46064 6.01566 3.48075C5.96712 3.50086 5.91509 3.51121 5.86256 3.51121C5.81002 3.51121 5.75799 3.50086 5.70946 3.48075C5.66092 3.46064 5.61682 3.43117 5.57967 3.39401L5.29191 3.10624C5.21872 3.03084 5.17813 2.92966 5.17892 2.82458C5.17971 2.7195 5.22182 2.61895 5.29614 2.54466C5.37045 2.47037 5.47102 2.42831 5.57609 2.42757C5.68117 2.42682 5.78232 2.46746 5.85768 2.54068L6.14544 2.82821C6.1826 2.86536 6.21207 2.90946 6.23218 2.958C6.25229 3.00654 6.26264 3.05857 6.26264 3.11111C6.26264 3.16365 6.25229 3.21568 6.23218 3.26422C6.21207 3.31276 6.1826 3.35686 6.14544 3.39401ZM7.24549 4.49411C7.17048 4.56908 7.06877 4.61119 6.96272 4.61119C6.85668 4.61119 6.75497 4.56908 6.67996 4.49411L6.40495 4.21909C6.3678 4.18194 6.33834 4.13783 6.31823 4.08929C6.29813 4.04075 6.28778 3.98873 6.28778 3.93619C6.28778 3.88365 6.29813 3.83162 6.31823 3.78308C6.33834 3.73454 6.3678 3.69044 6.40495 3.65329C6.47998 3.57826 6.58174 3.5361 6.68784 3.5361C6.74038 3.5361 6.7924 3.54645 6.84094 3.56656C6.88947 3.58666 6.93358 3.61613 6.97073 3.65329L7.24574 3.92831C7.28302 3.96546 7.31261 4.00959 7.3328 4.05819C7.353 4.1068 7.36341 4.1589 7.36343 4.21153C7.36345 4.26416 7.35309 4.31628 7.33294 4.3649C7.31279 4.41352 7.28324 4.45768 7.24599 4.49486L7.24549 4.49411ZM8.34553 5.59421C8.30838 5.63137 8.26428 5.66084 8.21574 5.68095C8.1672 5.70106 8.11518 5.71141 8.06264 5.71141C8.0101 5.71141 7.95808 5.70106 7.90954 5.68095C7.861 5.66084 7.8169 5.63137 7.77976 5.59421L7.50475 5.31919C7.43155 5.24379 7.39097 5.14262 7.39176 5.03754C7.39255 4.93245 7.43466 4.8319 7.50897 4.75762C7.58329 4.68333 7.68385 4.64126 7.78893 4.64052C7.89401 4.63978 7.99515 4.68041 8.07052 4.75364L8.34553 5.02866C8.38292 5.06575 8.41261 5.10985 8.43292 5.15843C8.45322 5.20702 8.46373 5.25914 8.46385 5.3118C8.46397 5.36446 8.45368 5.41663 8.43359 5.46531C8.4135 5.51398 8.384 5.55821 8.34678 5.59546L8.34553 5.59421ZM9.45632 6.70782C9.41918 6.74497 9.37507 6.77445 9.32654 6.79456C9.278 6.81467 9.22598 6.82502 9.17344 6.82502C9.1209 6.82502 9.06887 6.81467 9.02034 6.79456C8.9718 6.77445 8.9277 6.74497 8.89055 6.70782L8.60454 6.42029C8.5666 6.38325 8.53641 6.33904 8.51571 6.29023C8.49502 6.24142 8.48423 6.18898 8.48397 6.13596C8.48372 6.08294 8.49401 6.0304 8.51424 5.9814C8.53447 5.93239 8.56424 5.88789 8.60182 5.8505C8.6394 5.8131 8.68404 5.78354 8.73314 5.76355C8.78224 5.74356 8.83482 5.73352 8.88784 5.73403C8.94085 5.73454 8.99324 5.74559 9.04194 5.76653C9.09065 5.78746 9.13471 5.81787 9.17156 5.85599L9.45782 6.14326C9.49496 6.18043 9.52441 6.22454 9.5445 6.27309C9.56459 6.32164 9.57491 6.37367 9.57489 6.42622C9.57487 6.47876 9.5645 6.53078 9.54437 6.57931C9.52424 6.62784 9.49474 6.67193 9.45757 6.70906L9.45632 6.70782Z" fill="#8B8B8B"/>
</svg>
