<svg width="17" height="16" viewBox="0 0 17 16" fill="none" xmlns="http://www.w3.org/2000/svg">
<path d="M16.7402 5.51377L15.1875 4.04264C15.0622 3.92555 14.8951 3.85717 14.7193 3.851C14.5434 3.84483 14.3715 3.90131 14.2374 4.0093C14.0304 4.17623 13.7648 4.26339 13.4932 4.25351C13.2215 4.24363 12.9637 4.13743 12.7708 3.95596C12.5794 3.77324 12.4674 3.52906 12.4569 3.27179C12.4465 3.01453 12.5385 2.76293 12.7145 2.56684C12.8285 2.43981 12.8881 2.27693 12.8816 2.11031C12.8751 1.9437 12.8029 1.78545 12.6794 1.66675L11.1252 0.193952C10.9938 0.0697537 10.8158 0 10.6303 0C10.4447 0 10.2667 0.0697537 10.1354 0.193952L7.65999 2.53883C7.50716 2.68414 7.39191 2.861 7.32326 3.05555C7.30989 3.09295 7.2876 3.12693 7.25813 3.15486C7.22866 3.18278 7.19279 3.2039 7.15331 3.21656C6.94788 3.2816 6.76118 3.39093 6.60792 3.53592L0.260258 9.54981C0.129167 9.67424 0.055542 9.84287 0.055542 10.0187C0.055542 10.1945 0.129167 10.3631 0.260258 10.4876L1.8148 11.9587C1.94008 12.0758 2.10712 12.1442 2.28298 12.1503C2.45884 12.1565 2.63076 12.1 2.76484 11.992C2.97134 11.8238 3.23734 11.7356 3.50953 11.7453C3.78172 11.755 4.04 11.8618 4.2326 12.0442C4.4252 12.2267 4.53791 12.4714 4.54813 12.7293C4.55835 12.9872 4.46533 13.2392 4.28771 13.4348C4.17373 13.5619 4.11412 13.7247 4.12063 13.8914C4.12714 14.058 4.19931 14.2162 4.3229 14.3349L5.87568 15.806C6.00703 15.9302 6.18501 16 6.37058 16C6.55615 16 6.73414 15.9302 6.86548 15.806L13.2131 9.79216C13.3661 9.64702 13.4815 9.47027 13.5502 9.27578C13.5635 9.23826 13.5858 9.20416 13.6154 9.17617C13.6449 9.14818 13.6809 9.12705 13.7205 9.11444C13.9258 9.04938 14.1123 8.94018 14.2656 8.79541L16.7406 6.45019C16.8712 6.32577 16.9445 6.1574 16.9444 5.98191C16.9444 5.80643 16.8709 5.63811 16.7402 5.51377ZM8.70468 4.52535C8.6524 4.57489 8.59033 4.61419 8.52202 4.641C8.45371 4.66781 8.38049 4.68162 8.30655 4.68162C8.2326 4.68162 8.15938 4.66781 8.09107 4.641C8.02276 4.61419 7.96069 4.57489 7.90841 4.52535L7.50341 4.14165C7.4004 4.04111 7.34328 3.90622 7.3444 3.76611C7.34551 3.626 7.40477 3.49194 7.50936 3.39288C7.61396 3.29383 7.75549 3.23775 7.90338 3.23676C8.05126 3.23576 8.19362 3.28994 8.29969 3.38758L8.70468 3.77095C8.75697 3.82048 8.79845 3.87928 8.82676 3.944C8.85506 4.00872 8.86962 4.07809 8.86962 4.14815C8.86962 4.2182 8.85506 4.28757 8.82676 4.35229C8.79845 4.41701 8.75697 4.47582 8.70468 4.52535ZM10.2529 5.99215C10.1473 6.0921 10.0042 6.14825 9.85493 6.14825C9.70568 6.14825 9.56254 6.0921 9.45697 5.99215L9.06992 5.62545C9.01764 5.57591 8.97616 5.51711 8.94787 5.45239C8.91957 5.38767 8.90501 5.3183 8.90501 5.24825C8.90501 5.1782 8.91957 5.10883 8.94787 5.04411C8.97616 4.97939 9.01764 4.92058 9.06992 4.87105C9.17551 4.77101 9.31873 4.7148 9.46806 4.7148C9.542 4.7148 9.61521 4.7286 9.68353 4.75541C9.75184 4.78222 9.81391 4.82151 9.86619 4.87105L10.2532 5.23775C10.3057 5.28727 10.3474 5.34612 10.3758 5.41093C10.4042 5.47573 10.4189 5.5452 10.4189 5.61538C10.4189 5.68555 10.4043 5.75504 10.376 5.81987C10.3476 5.88469 10.306 5.94358 10.2536 5.99315L10.2529 5.99215ZM11.8011 7.45895C11.7488 7.50849 11.6868 7.54779 11.6184 7.5746C11.5501 7.60142 11.4769 7.61522 11.403 7.61522C11.329 7.61522 11.2558 7.60142 11.1875 7.5746C11.1192 7.54779 11.0571 7.50849 11.0048 7.45895L10.6178 7.09225C10.5148 6.99172 10.4576 6.85682 10.4588 6.71671C10.4599 6.57661 10.5191 6.44254 10.6237 6.34349C10.7283 6.24444 10.8699 6.18835 11.0177 6.18736C11.1656 6.18637 11.308 6.24054 11.414 6.33818L11.8011 6.70488C11.8537 6.75433 11.8955 6.81313 11.9241 6.87791C11.9527 6.9427 11.9675 7.01219 11.9676 7.0824C11.9678 7.15262 11.9533 7.22217 11.925 7.28707C11.8968 7.35198 11.8552 7.41095 11.8029 7.46062L11.8011 7.45895ZM13.3644 8.94375C13.3122 8.9933 13.2501 9.03259 13.1818 9.05941C13.1135 9.08622 13.0402 9.10002 12.9663 9.10002C12.8924 9.10002 12.8191 9.08622 12.7508 9.05941C12.6825 9.03259 12.6204 8.9933 12.5682 8.94375L12.1656 8.56038C12.1122 8.511 12.0697 8.45205 12.0406 8.38697C12.0115 8.32189 11.9963 8.25197 11.9959 8.18128C11.9956 8.11059 12.0101 8.04054 12.0385 7.9752C12.067 7.90985 12.1089 7.85053 12.1618 7.80066C12.2147 7.7508 12.2775 7.71139 12.3466 7.68473C12.4157 7.65807 12.4897 7.6447 12.5644 7.64538C12.639 7.64606 12.7127 7.66078 12.7812 7.6887C12.8498 7.71661 12.9118 7.75716 12.9637 7.80798L13.3666 8.19102C13.4188 8.24057 13.4603 8.29939 13.4885 8.36413C13.5168 8.42886 13.5313 8.49823 13.5313 8.56829C13.5313 8.63834 13.5167 8.70771 13.4884 8.77241C13.46 8.83712 13.4185 8.89591 13.3662 8.94542L13.3644 8.94375Z" fill="white"/>
</svg>
